<svg data-v-fde0c5aa="" xmlns="http://www.w3.org/2000/svg" viewBox="0 0 300 300" class="iconLeft"><!----><defs data-v-fde0c5aa=""><!----></defs><rect data-v-fde0c5aa="" fill="transparent" x="0" y="0" width="300px" height="300px" class="logo-background-square"></rect><defs data-v-fde0c5aa=""><!----></defs><g data-v-fde0c5aa="" id="7ba8db41-67cd-46ee-b74a-df8b9c5561bb" fill="#000000" transform="matrix(3.190468890844135,0,0,3.190468890844135,128.77600721337362,122.97672840327013)"><path d="M9.32 3.78L9.32 6.17L6.44 6.17L6.44 13.02L3.18 13.02L3.18 6.17L0.28 6.17L0.28 3.78L9.32 3.78ZM16.37 9.30Q16.37 9.83 16.30 10.14L16.30 10.14L11.84 10.14Q11.91 10.65 12.14 10.84Q12.36 11.02 12.81 11.02L12.81 11.02Q13.50 11.02 13.65 10.42L13.65 10.42L16.24 11.12Q16.00 12.12 15.07 12.64Q14.14 13.16 12.81 13.16L12.81 13.16Q10.82 13.16 9.79 12.22Q8.76 11.28 8.76 9.52L8.76 9.52Q8.76 7.78 9.78 6.83Q10.79 5.88 12.64 5.88L12.64 5.88Q14.45 5.88 15.41 6.80Q16.37 7.73 16.37 9.30L16.37 9.30ZM12.66 8.01Q12.29 8.01 12.10 8.22Q11.90 8.43 11.84 8.95L11.84 8.95L13.36 8.95Q13.31 8.47 13.15 8.24Q12.99 8.01 12.66 8.01L12.66 8.01ZM20.80 5.88Q22.75 5.88 23.61 6.57Q24.47 7.27 24.50 8.26L24.50 8.26L21.53 9.13Q21.57 8.05 20.97 8.05L20.97 8.05Q20.54 8.05 20.35 8.38Q20.16 8.71 20.16 9.56L20.16 9.56Q20.16 10.40 20.36 10.70Q20.57 10.99 20.96 10.99L20.96 10.99Q21.25 10.99 21.41 10.76Q21.56 10.53 21.59 10.07L21.59 10.07L24.47 10.96Q24.47 11.56 24.06 12.06Q23.65 12.56 22.86 12.86Q22.06 13.16 20.97 13.16L20.97 13.16Q18.98 13.16 17.96 12.22Q16.93 11.28 16.93 9.52L16.93 9.52Q16.93 7.78 17.94 6.83Q18.96 5.88 20.80 5.88L20.80 5.88ZM28.87 5.88Q30.81 5.88 31.68 6.57Q32.54 7.27 32.56 8.26L32.56 8.26L29.60 9.13Q29.64 8.05 29.04 8.05L29.04 8.05Q28.60 8.05 28.41 8.38Q28.22 8.71 28.22 9.56L28.22 9.56Q28.22 10.40 28.43 10.70Q28.63 10.99 29.02 10.99L29.02 10.99Q29.32 10.99 29.47 10.76Q29.62 10.53 29.65 10.07L29.65 10.07L32.54 10.96Q32.54 11.56 32.12 12.06Q31.71 12.56 30.92 12.86Q30.13 13.16 29.04 13.16L29.04 13.16Q27.05 13.16 26.02 12.22Q24.99 11.28 24.99 9.52L24.99 9.52Q24.99 7.78 26.01 6.83Q27.02 5.88 28.87 5.88L28.87 5.88ZM40.78 11.30Q41.02 11.30 41.13 11.24L41.13 11.24L40.88 12.88Q40.40 13.16 39.84 13.16L39.84 13.16Q38.99 13.16 38.42 12.86Q37.84 12.56 37.65 11.98L37.65 11.98Q37.32 12.53 36.70 12.84Q36.08 13.16 35.15 13.16L35.15 13.16Q34.06 13.16 33.53 12.73Q33.00 12.31 33.00 11.49L33.00 11.49Q33.00 10.61 33.63 10.09Q34.26 9.56 35.73 9.24L35.73 9.24L37.11 8.93L37.11 8.65Q37.11 8.33 36.95 8.15Q36.79 7.97 36.48 7.97L36.48 7.97Q36.15 7.97 35.95 8.15Q35.76 8.34 35.74 8.82L35.74 8.82L33.08 8.41Q33.19 7.21 34.09 6.54Q34.99 5.88 36.67 5.88L36.67 5.88Q38.53 5.88 39.42 6.59Q40.31 7.31 40.31 8.76L40.31 8.76L40.31 10.72Q40.31 11.30 40.78 11.30L40.78 11.30ZM36.51 11.41Q36.78 11.41 36.95 11.23Q37.11 11.06 37.11 10.72L37.11 10.72L37.11 10.05L36.65 10.19Q36.36 10.28 36.19 10.46Q36.02 10.65 36.02 10.92L36.02 10.92Q36.02 11.16 36.16 11.28Q36.30 11.41 36.51 11.41L36.51 11.41Z"></path></g><defs data-v-fde0c5aa=""><linearGradient data-v-fde0c5aa="" gradientTransform="rotate(25)" id="c3617aad-d632-4044-9a32-87164b758b4d" x1="0%" y1="0%" x2="100%" y2="0%"><stop data-v-fde0c5aa="" offset="0%" stop-color="#4E1A70" stop-opacity="1"></stop><stop data-v-fde0c5aa="" offset="100%" stop-color="#2B4CF2" stop-opacity="1"></stop></linearGradient></defs><g data-v-fde0c5aa="" id="073fcb56-2de6-4d51-99a8-639e6bdc6c25" stroke="none" fill="url(#c3617aad-d632-4044-9a32-87164b758b4d)" transform="matrix(2.3959168283316665,0,0,2.3959168283316665,40,111.66533074669334)"><path d="M16 19.586l7.496-12.954H8.504zM7.496 12.414L0 25.368h14.992zM24.504 12.414l-7.496 12.954H32z"></path></g><!----></svg>